# xmcd CD database file
#
# Track frame offsets:
#	150
#	21155
#	42975
#	66337
#	89735
#	113302
#	131880
#	151827
#	175487
#	200722
#	221617
#
# Disc length: 3254 seconds
#
# Revision: 1
# Processed by: cddbd v1.5.1PL0 Copyright (c) Steve Scherf et al.
# Submitted via: CDex 1.51
#
DISCID=a00cb40b
DTITLE=Joe Krown - Livin' Large
DYEAR=2005
DGENRE=Jazz
TTITLE0=Living Large
TTITLE1=New Finish
TTITLE2=Slow Daddy
TTITLE3=Under the Influence
TTITLE4=Uncle Trio
TTITLE5=My Mama Told Me
TTITLE6=Snickle Fritz
TTITLE7=Stick a Fork In It
TTITLE8=Dame Dreaming
TTITLE9=Open 24 Hours
TTITLE10=Bring Me BBQ Baby
EXTD=YEAR: 2005
EXTT0=
EXTT1=
EXTT2=
EXTT3=
EXTT4=
EXTT5=
EXTT6=
EXTT7=
EXTT8=
EXTT9=
EXTT10=
PLAYORDER=
